#!OML:ASF X:\für Bonn\!DataBase\2005_08_12_Daniel\c3d\Daniel.ASF
:FULLY-SPECIFIED
:DEGREES
144
root -2.9645 15.6353 -2.55381 313.259 -82.1917 -328.505
lowerback 32.9413 -3.02905 -2.19871
upperback 0.819661 -5.52792 -2.79418
thorax -16.3011 -2.44421 0.545374
lowerneck 1.00462 1.5349 -3.82607
upperneck 3.82552 1.9667 1.62204
head 0.956328 0.93397 1.15011
rclavicle 2.83392e-014 1.07344e-014
rhumerus 61.3675 -13.8315 -119.699
rradius 8.03053
rwrist 94.4036
rhand -16.1382 14.1127
rfingers 7.12502
rthumb 10.0669 -15.6265
lclavicle 2.83392e-014 1.07344e-014
lhumerus 60.3693 8.63779 103.236
lradius 9.02777
lwrist -76.7029
lhand -14.8935 3.97389
lfingers 7.12502
lthumb 11.2675 33.6513
rfemur -14.297 -14.4467 3.87016
rtibia 62.3599
rfoot -25.8383 17.4203
rtoes -11.8235
lfemur -18.8996 -8.38972 -22.4441
ltibia 61.7587
lfoot -31.7106 -5.09057
ltoes -1.32093
145
root -2.96095 15.7372 -2.56238 312.468 -82.2511 -327.413
lowerback 32.4811 -2.96619 -2.30841
upperback 0.692074 -5.46373 -2.78227
thorax -16.2405 -2.40723 0.57139
lowerneck 1.00332 1.55695 -3.83259
upperneck 3.99517 1.99358 1.62175
head 1.00873 0.944805 1.15296
rclavicle 8.19366e-015 -1.98785e-015
rhumerus 61.0957 -13.781 -119.488
rradius 7.87874
rwrist 93.8023
rhand -16.379 14.0125
rfingers 7.12502
rthumb 9.83453 -15.7378
lclavicle 8.19366e-015 -1.98785e-015
lhumerus 60.072 8.81798 103.275
lradius 8.98082
lwrist -76.9823
lhand -15.2881 3.89169
lfingers 7.12502
lthumb 10.8869 33.5895
rfemur -13.4162 -13.2144 4.30299
rtibia 60.5293
rfoot -26.5245 16.5065
rtoes -12.2315
lfemur -18.2592 -9.09224 -22.71
ltibia 60.2381
lfoot -31.6152 -4.16406
ltoes -1.5243
146
root -2.95788 15.8381 -2.57114 311.677 -82.3207 -326.337
lowerback 32.0361 -2.89865 -2.40228
upperback 0.56242 -5.38745 -2.76983
thorax -16.1885 -2.36582 0.585534
lowerneck 1.05295 1.5652 -3.86216
upperneck 4.13362 1.99928 1.64379
head 1.0431 0.945045 1.16583
rclavicle -1.51014e-014 -3.39922e-014
rhumerus 60.8456 -13.7256 -119.285
rradius 7.70909
rwrist 93.2581
rhand -16.6077 13.8611
rfingers 7.12502
rthumb 9.61382 -15.8996
lclavicle -1.51014e-014 -3.39922e-014
lhumerus 59.7608 8.94635 103.341
lradius 8.98513
lwrist -77.2709
lhand -15.6316 3.82151
lfingers 7.12502
lthumb 10.5555 33.5364
rfemur -12.5275 -12.0275 4.74411
rtibia 58.704
rfoot -27.1455 15.5463
rtoes -12.6088
lfemur -17.6108 -9.71079 -22.9305
ltibia 58.7136
lfoot -31.5333 -3.31357
ltoes -1.50869
147
root -2.95536 15.9401 -2.58006 310.754 -82.3818 -325.113
lowerback 31.5547 -2.8275 -2.50603
upperback 0.441936 -5.30882 -2.76437
thorax -16.1071 -2.32417 0.594826
lowerneck 1.10081 1.57861 -3.92222
upperneck 4.25948 2.01128 1.68925
head 1.07332 0.948404 1.19129
rclavicle -4.6938e-014 -1.98785e-015
rhumerus 60.6254 -13.6577 -119.092
rradius 7.53652
rwrist 92.8351
rhand -16.8095 13.7171
rfingers 7.12502
rthumb 9.41919 -16.0524
lclavicle -4.6938e-014 -1.98785e-015
lhumerus 59.4493 9.06169 103.413
lradius 9.04259
lwrist -77.5969
lhand -15.8958 3.83063
lfingers 7.12502
lthumb 10.3006 33.5584
rfemur -11.6492 -10.8358 5.1872
rtibia 56.8672
rfoot -27.7248 14.4402
rtoes -12.9853
lfemur -16.9697 -10.1927 -23.1168
ltibia 57.1719
lfoot -31.4562 -2.59844
ltoes -1.52158
148
root -2.95296 16.0404 -2.5896 309.759 -82.4597 -323.85
lowerback 31.1092 -2.74907 -2.61228
upperback 0.316056 -5.22177 -2.75364
thorax -16.0455 -2.27761 0.610078
lowerneck 1.18496 1.59694 -3.94119
upperneck 4.39178 2.02889 1.69828
head 1.09978 0.954312 1.1978
rclavicle -7.39541e-014 -3.69739e-014
rhumerus 60.4141 -13.5844 -118.901
rradius 7.34664
rwrist 92.4694
rhand -16.9521 13.6044
rfingers 7.12502
rthumb 9.28157 -16.1713
lclavicle -7.39541e-014 -3.69739e-014
lhumerus 59.1282 9.16966 103.491
lradius 9.13044
lwrist -77.9303
lhand -16.0695 3.82232
lfingers 7.12502
lthumb 10.1331 33.5583
rfemur -10.7504 -9.5926 5.64901
rtibia 55.0302
rfoot -28.2989 13.2587
rtoes -13.4384
lfemur -16.2946 -10.5397 -23.2498
ltibia 55.6308
lfoot -31.3427 -2.03296
ltoes -1.39732
149
root -2.95643 16.1388 -2.60152 309.311 -82.4837 -323.108
lowerback 30.5499 -2.70202 -2.70382
upperback 0.228876 -5.16262 -2.74274
thorax -15.8844 -2.2483 0.623115
lowerneck 1.28528 1.61111 -3.93247
upperneck 4.45971 2.04126 1.70626
head 1.10364 0.958899 1.19828
rclavicle 3.16658e-014 1.41137e-014
rhumerus 60.2654 -13.464 -118.753
rradius 7.18986
rwrist 92.1939
rhand -16.992 13.4349
rfingers 7.12502
rthumb 9.24305 -16.3425
lclavicle 3.16658e-014 1.41137e-014
lhumerus 58.833 9.24737 103.574
lradius 9.29424
lwrist -78.2426
lhand -16.0637 3.85168
lfingers 7.12502
lthumb 10.1387 33.5874
rfemur -9.84015 -8.41818 6.13012
rtibia 53.2067
rfoot -28.902 11.9944
rtoes -13.9032
lfemur -15.6677 -10.8662 -23.3365
ltibia 54.122
lfoot -31.2513 -1.52107
ltoes -1.33563
150
root -2.96154 16.229 -2.61453 308.89 -82.4999 -322.419
lowerback 30.0038 -2.65495 -2.80609
upperback 0.134268 -5.10506 -2.72062
thorax -15.7334 -2.21782 0.655964
lowerneck 1.39653 1.62668 -3.98305
upperneck 4.58782 2.05306 1.72873
head 1.12407 0.961308 1.21408
rclavicle 1.4387e-014 -2.5842e-015
rhumerus 60.1076 -13.354 -118.576
rradius 7.02596
rwrist 92.006
rhand -16.9946 13.3117
rfingers 7.12502
rthumb 9.24059 -16.4658
lclavicle 1.4387e-014 -2.5842e-015
lhumerus 58.5261 9.35059 103.663
lradius 9.48249
lwrist -78.4352
lhand -15.9617 3.8228
lfingers 7.12502
lthumb 10.2371 33.5537
rfemur -8.92694 -7.22805 6.60566
rtibia 51.4341
rfoot -29.4832 10.7366
rtoes -14.3686
lfemur -15.0601 -11.131 -23.3924
ltibia 52.6909
lfoot -31.1699 -1.13128
ltoes -1.153
151
root -2.96888 16.3123 -2.62786 308.371 -82.507 -321.622
lowerback 29.4178 -2.60326 -2.91266
upperback 0.0449949 -5.04193 -2.71064
thorax -15.5557 -2.1862 0.674099
lowerneck 1.58938 1.63952 -3.99395
upperneck 4.62822 2.05916 1.73123
head 1.10365 0.962007 1.21468
rclavicle -1.91936e-014 -5.36719e-015
rhumerus 59.973 -13.2523 -118.41
rradius 6.87292
rwrist 91.8465
rhand -16.9465 13.207
rfingers 7.12502
rthumb 9.28699 -16.5685
lclavicle -1.91936e-014 -5.36719e-015
lhumerus 58.1928 9.43565 103.75
lradius 9.76342
lwrist -78.6055
lhand -15.6615 3.74065
lfingers 7.12502
lthumb 10.5267 33.457
rfemur -8.08008 -6.05282 7.04957
rtibia 49.7317
rfoot -29.9846 9.46466
rtoes -14.6878
lfemur -14.5028 -11.3353 -23.4479
ltibia 51.3406
lfoot -31.1229 -0.756038
ltoes -1.07717
152
root -2.97702 16.3912 -2.64173 308.168 -82.519 -321.147
lowerback 28.811 -2.57155 -2.99201
upperback -0.0250687 -4.99208 -2.69588
thorax -15.3444 -2.16365 0.686832
lowerneck 1.75494 1.65303 -4.00981
upperneck 4.68916 2.06701 1.735
head 1.09426 0.963339 1.21711
rclavicle -4.69233e-014 -1.98785e-016
rhumerus 59.841 -13.1313 -118.25
rradius 6.76765
rwrist 91.7318
rhand -16.8574 13.0835
rfingers 7.12502
rthumb 9.37293 -16.6881
lclavicle -4.69233e-014 -1.98785e-016
lhumerus 57.9183 9.52571 103.821
lradius 10.018
lwrist -78.6583
lhand -15.2878 3.64923
lfingers 7.12502
lthumb 10.8872 33.347
rfemur -7.2688 -4.91101 7.52824
rtibia 48.0936
rfoot -30.4576 8.17049
rtoes -15.0697
lfemur -13.9996 -11.4923 -23.4389
ltibia 50.0813
lfoot -31.0879 -0.491493
ltoes -0.948844
153
root -2.98603 16.4641 -2.65573 307.669 -82.5144 -320.399
lowerback 28.2046 -2.52114 -3.10306
upperback -0.0723063 -4.92935 -2.69355
thorax -15.1023 -2.1352 0.697929
lowerneck 1.88977 1.66902 -4.03131
upperneck 4.75064 2.07846 1.77567
head 1.08984 0.967051 1.23263
rclavicle -1.03735e-014 -2.18663e-015
rhumerus 59.7422 -13.008 -118.108
rradius 6.69385
rwrist 91.684
rhand -16.7511 12.9806
rfingers 7.12502
rthumb 9.47549 -16.7864
lclavicle -1.03735e-014 -2.18663e-015
lhumerus 57.6031 9.22437 103.333
lradius 10.2426
lwrist -77.9372
lhand -14.8964 3.62091
lfingers 7.12502
lthumb 11.2646 33.2984
rfemur -6.47919 -3.78997 7.94671
rtibia 46.5385
rfoot -30.87 6.86308
rtoes -15.5896
lfemur -13.4946 -11.5745 -23.4614
ltibia 48.8956
lfoot -31.0778 -0.28475
ltoes -0.826908
154
root -2.99586 16.5325 -2.66989 307.408 -82.5089 -319.893
lowerback 27.607 -2.48753 -3.17901
upperback 0.221436 -4.86601 -2.65774
thorax -15.2389 -2.11826 0.678911
lowerneck 2.08775 1.67894 -4.06332
upperneck 4.79606 2.07938 1.78676
head 1.07016 0.964629 1.23958
rclavicle -3.13909e-014 -1.74931e-014
rhumerus 59.6059 -12.9045 -117.958
rradius 6.66804
rwrist 91.6325
rhand -16.6424 12.9149
rfingers 7.12502
rthumb 9.58039 -16.8473
lclavicle -3.13909e-014 -1.74931e-014
lhumerus 57.2507 8.91615 102.823
lradius 10.5107
lwrist -77.0835
lhand -14.4606 3.55644
lfingers 7.12502
lthumb 11.6849 33.2106
rfemur -5.73745 -2.74914 8.36028
rtibia 45.0518
rfoot -31.1861 5.64725
rtoes -15.7786
lfemur -13.0438 -11.6081 -23.4382
ltibia 47.7882
lfoot -31.1053 -0.155932
ltoes -0.94261
155
root -3.00589 16.5936 -2.68517 307.148 -82.503 -319.386
lowerback 26.9828 -2.45432 -3.25651
upperback 0.161736 -4.80979 -2.6451
thorax -14.9562 -2.0947 0.686919
lowerneck 2.25829 1.69116 -4.18245
upperneck 4.82185 2.08251 1.84165
head 1.04798 0.962805 1.27566
rclavicle -1.88255e-014 5.1684e-015
rhumerus 59.5018 -12.7751 -117.798
rradius 6.65818
rwrist 91.5782
rhand -16.4972 12.8503
rfingers 7.12502
rthumb 9.72045 -16.9054
lclavicle -1.88255e-014 5.1684e-015
lhumerus 56.9964 8.74618 102.627
lradius 10.758
lwrist -76.5461
lhand -14.0842 3.48121
lfingers 7.12502
lthumb 12.0479 33.1144
rfemur -5.06462 -1.82437 8.73097
rtibia 43.6634
rfoot -31.4683 4.52666
rtoes -16.1231
lfemur -12.6348 -11.6128 -23.3969
ltibia 46.7502
lfoot -31.2037 -0.123185
ltoes -1.24936
156
root -3.01602 16.6504 -2.69906 306.858 -82.4935 -318.86
lowerback 26.3558 -2.43159 -3.28887
upperback 0.117998 -4.75668 -2.65986
thorax -14.6581 -2.07819 0.638974
lowerneck 2.39793 1.69884 -4.27827
upperneck 4.86308 2.08059 1.90651
head 1.03612 0.958925 1.31152
rclavicle -6.84689e-014 -1.37161e-014
rhumerus 59.4101 -12.6624 -117.667
rradius 6.67954
rwrist 91.4639
rhand -16.4179 12.8044
rfingers 7.12502
rthumb 9.79695 -16.9477
lclavicle -6.84689e-014 -1.37161e-014
lhumerus 56.7875 8.52573 102.365
lradius 10.9393
lwrist -75.8355
lhand -13.8568 3.39254
lfingers 7.12502
lthumb 12.2672 33.0127
rfemur -4.44499 -1.00345 9.05173
rtibia 42.3702
rfoot -31.688 3.51447
rtoes -16.324
lfemur -12.2548 -11.5802 -23.3606
ltibia 45.7834
lfoot -31.2923 -0.106673
ltoes -1.62551
